HIERARCHY
ROOT Hips
{
  OFFSET -0.495941 0.00 -3.45682
  CHANNELS 6 Xposition Yposition Zposition Zrotation Xrotation Yrotation
  JOINT LHipJoint
  {
    OFFSET 0 0 0
    CHANNELS 3 Zrotation Xrotation Yrotation
    JOINT LeftUpLeg
    {
      OFFSET 1.8 -1.4 0.085
      CHANNELS 3 Zrotation Xrotation Yrotation
      JOINT LeftLeg
      {
        OFFSET 2.215 -6 0
        CHANNELS 3 Zrotation Xrotation Yrotation
        JOINT LeftFoot
        {
          OFFSET 2.5 -6.9 0
          CHANNELS 3 Zrotation Xrotation Yrotation
          JOINT LeftToeBase
          {
            OFFSET 0.2 -0.5 1.95
            CHANNELS 3 Zrotation Xrotation Yrotation
            End Site
            {
              OFFSET 0 0 1
            }
          }
        }
      }
    }
  }
  JOINT RHipJoint
  {
    OFFSET 0 0 0
    CHANNELS 3 Zrotation Xrotation Yrotation
    JOINT RightUpLeg
    {
      OFFSET -1.8 -1.4 0.085
      CHANNELS 3 Zrotation Xrotation Yrotation
      JOINT RightLeg
      {
        OFFSET -2.215 -6 0
        CHANNELS 3 Zrotation Xrotation Yrotation
        JOINT RightFoot
        {
          OFFSET -2.5 -6.9 0
          CHANNELS 3 Zrotation Xrotation Yrotation
          JOINT RightToeBase
          {
            OFFSET -0.2 -0.5 1.95
            CHANNELS 3 Zrotation Xrotation Yrotation
            End Site
            {
              OFFSET 0 0 1
            }
          }
        }
      }
    }
  }
  JOINT LowerBack
  {
    OFFSET 0 0 0
    CHANNELS 3 Zrotation Xrotation Yrotation
    JOINT Spine
    {
      OFFSET -0.087 1.94 -0.2889
      CHANNELS 3 Zrotation Xrotation Yrotation
      JOINT Spine1
      {
        OFFSET 0 1.95 0.06
        CHANNELS 3 Zrotation Xrotation Yrotation
        JOINT Neck
        {
          OFFSET 0 0 0
          CHANNELS 3 Zrotation Xrotation Yrotation
          JOINT Neck1
          {
            OFFSET 0 1.6 0.34
            CHANNELS 3 Zrotation Xrotation Yrotation
            JOINT Head
            {
              OFFSET 0 1.667 -0.24
              CHANNELS 3 Zrotation Xrotation Yrotation
              End Site
              {
                OFFSET 0 1.686 -0.12
              }
            }
          }
        }
        JOINT LeftShoulder
        {
          OFFSET 0 0 0
          CHANNELS 3 Zrotation Xrotation Yrotation
          JOINT LeftArm
          {
            OFFSET 2.7 1.55 -0.73
            CHANNELS 3 Zrotation Xrotation Yrotation
            JOINT LeftForeArm
            {
              OFFSET 5.45 0 0
              CHANNELS 3 Zrotation Xrotation Yrotation
              JOINT LeftHand
              {
                OFFSET 3.45 0 0
                CHANNELS 3 Zrotation Xrotation Yrotation
                JOINT LeftFingerBase
                {
                  OFFSET 0 0 0
                  CHANNELS 3 Zrotation Xrotation Yrotation
                  JOINT LeftHandIndex1
                  {
                    OFFSET 0.75 0 0
                    CHANNELS 3 Zrotation Xrotation Yrotation
                    End Site
                    {
                      OFFSET 0.6 0 0
                    }
                  }
                }
                JOINT LThumb
                {
                  OFFSET 0 0 0
                  CHANNELS 3 Zrotation Xrotation Yrotation
                  End Site
                  {
                    OFFSET 0.59 0 0.59
                  }
                }
              }
            }
          }
        }
        JOINT RightShoulder
        {
          OFFSET 0 0 0
          CHANNELS 3 Zrotation Xrotation Yrotation
          JOINT RightArm
          {
            OFFSET -2.7 1.55 -0.73
            CHANNELS 3 Zrotation Xrotation Yrotation
            JOINT RightForeArm
            {
              OFFSET -5.45 0 0
              CHANNELS 3 Zrotation Xrotation Yrotation
              JOINT RightHand
              {
                OFFSET -3.45 0 0
                CHANNELS 3 Zrotation Xrotation Yrotation
                JOINT RightFingerBase
                {
                  OFFSET 0 0 0
                  CHANNELS 3 Zrotation Xrotation Yrotation
                  JOINT RightHandIndex1
                  {
                    OFFSET -0.75 0 0
                    CHANNELS 3 Zrotation Xrotation Yrotation
                    End Site
                    {
                      OFFSET -0.6 0 0
                    }
                  }
                }
                JOINT RThumb
                {
                  OFFSET 0 0 0
                  CHANNELS 3 Zrotation Xrotation Yrotation
                  End Site
                  {
                    OFFSET -0.59 0 0.59
                  }
                }
              }
            }
          }
        }
      }
    }
  }
}
MOTION
Frames:	7
Frame Time:	0.00833333
-0.496029 18.2853 -3.45678 -0.000332477 -0.000360505 -0.00263466 7.84311e-020 -9.70628e-020 -0 -18.4979 -4.76493 1.32163 0.459003 8.01161 3.41434 -1.03479 -3.17867 -4.82117 1.11411e-006 -5.98755e-014 -2.68699e-014 7.84311e-020 -9.70628e-020 -0 21.8271 -6.97899 0.835047 -1.33164 9.35811 -15.1884 2.50023 -1.78049 14.6031 -1.02373e-015 -3.94603e-014 -1.99693e-013 7.84311e-020 -9.70628e-020 -0 -0.00260994 -0.000948755 -0.000201871 0.00136535 0.00454768 -0.000371699 -0.00381599 -16.0155 -0.0135521 -8.36055e-005 20.9844 3.89938e-005 0.000636284 10.994 0.00110387 0.336402 0.0041049 3.48306 -27.6021 -45.882 -32.9223 1.42861 51.824 0.00140495 3.86014 -2.25749 -3.29406 -1.98785e-016 -7.95139e-016 -1.27222e-014 -1.98785e-016 -7.95139e-016 -1.27222e-014 -1.98785e-016 -3.97569e-016 -3.18055e-015 -0.319823 0.0478685 -2.79014 37.2644 -36.959 48.0947 11.591 -0.529136 0.000285694 -5.38955 -0.525049 -0.0507133 -1.46289e-006 4.65295e-007 6.72178e-007 3.18055e-015 -3.18055e-015 6.36111e-015 9.54166e-015 -6.36111e-015 3.18055e-015 
-0.496351 18.2852 -3.45663 -0.00162368 -0.00246113 -0.0129512 3.71474e-019 0 6.21202e-018 -18.5008 -4.76014 1.32084 0.465393 8.01157 3.41992 -1.02306 -3.18362 -4.82229 1.11411e-006 -5.98769e-014 -2.68685e-014 3.71474e-019 0 6.21202e-018 21.839 -6.99997 0.84387 -1.33646 9.38754 -15.2093 2.44498 -1.75894 14.6251 3.60427e-015 -3.9465e-014 -1.99694e-013 3.71474e-019 0 6.21202e-018 -0.0138567 -0.00399896 -0.00145543 0.00821768 0.0235665 -0.00255054 -0.00515029 -16.0155 -0.0135521 -0.00153276 20.9844 0.000714855 0.00261305 10.9685 0.00617512 0.336402 0.0041049 3.48306 -27.5703 -45.8791 -32.8957 1.42591 51.8625 0.00140615 3.83616 -2.25779 -3.28265 -2.20695e-032 -3.97569e-016 -3.18055e-015 3.97569e-016 -7.95139e-016 -3.18055e-015 -1.98785e-016 0 3.18055e-015 -0.319823 0.0478685 -2.79101 37.2988 -36.9399 48.1196 11.5873 -0.529136 0.000285694 -5.38955 -0.525049 -0.0507133 -1.46289e-006 4.65295e-007 6.72178e-007 3.18055e-015 -3.18055e-015 3.18055e-015 -0 0 6.36111e-015 
-0.496668 18.2851 -3.45648 -0.00290941 -0.00466713 -0.0232323 8.67499e-019 0 6.21202e-018 -18.5037 -4.75523 1.32014 0.471749 8.01152 3.42548 -1.01109 -3.18855 -4.82351 1.11411e-006 -5.98753e-014 -2.6867e-014 8.67499e-019 0 6.21202e-018 21.8512 -7.02133 0.852856 -1.34138 9.41761 -15.2306 2.3884 -1.73704 14.6472 -3.34204e-015 -3.94588e-014 -1.99684e-013 8.67499e-019 0 6.21202e-018 -0.0252326 -0.00692999 -0.00278037 0.015294 0.0427178 -0.0048401 -0.00664881 -16.0155 -0.0135521 -0.00316028 20.9844 0.0014739 0.00450314 10.9429 0.0113505 0.336402 0.0041049 3.48306 -27.5381 -45.8761 -32.8684 1.42299 51.901 0.00140735 3.8114 -2.25806 -3.27086 0 0 -3.18055e-015 1.98785e-016 3.97569e-016 -9.54166e-015 -2.20695e-032 3.97569e-016 3.18055e-015 -0.319822 0.0478685 -2.79187 37.333 -36.9207 48.1447 11.5837 -0.529136 0.000285694 -5.38955 -0.525049 -0.0507133 -1.46289e-006 4.65295e-007 6.72178e-007 3.18055e-015 6.36111e-015 -3.18055e-015 3.18055e-015 9.54166e-015 -6.36111e-015 
-0.497038 18.2851 -3.45633 -0.00426425 -0.00571399 -0.0339042 8.27688e-019 1.55301e-018 -0 -18.5063 -4.75156 1.31838 0.478473 8.01148 3.43127 -1.00167 -3.19373 -4.82358 1.11411e-006 -5.98777e-014 -2.68701e-014 8.27688e-019 1.55301e-018 -0 21.861 -7.03858 0.860061 -1.3449 9.44056 -15.2481 2.34619 -1.71897 14.667 1.39577e-015 -3.94588e-014 -1.99698e-013 8.27688e-019 1.55301e-018 -0 -0.0351886 -0.0111719 -0.00332021 0.0199238 0.0604117 -0.00591168 -0.0063409 -16.0155 -0.0135521 -0.00282586 20.9844 0.00131794 0.00740103 10.9194 0.0153703 0.336402 0.0041049 3.48306 -27.5107 -45.8746 -32.8486 1.42245 51.9394 0.00140856 3.7952 -2.25862 -3.26319 5.96354e-016 3.97569e-016 -0 9.93923e-016 0 -3.18055e-015 3.97569e-016 7.95139e-016 6.36111e-015 -0.319821 0.0478684 -2.79285 37.3676 -36.9018 48.1679 11.5794 -0.529136 0.000285694 -5.38955 -0.525049 -0.0507133 -1.46289e-006 4.65295e-007 6.72178e-007 3.18055e-015 0 -0 -6.36111e-015 0 3.18055e-015 
-0.497521 18.285 -3.4562 -0.00576563 -0.00436237 -0.0453602 4.88347e-019 0 -0 -18.5079 -4.75049 1.31433 0.486044 8.01142 3.43763 -0.997753 -3.19921 -4.82164 1.11411e-006 -5.98792e-014 -2.68639e-014 4.88347e-019 0 -0 21.8661 -7.04711 0.863414 -1.34548 9.44836 -15.2574 2.33453 -1.70899 14.6817 3.52715e-015 -3.94588e-014 -1.99687e-013 4.88347e-019 0 -0 -0.0421721 -0.0181817 -0.00223465 0.0194171 0.0750888 -0.00444978 -0.00225015 -16.0155 -0.0135521 0.00161743 20.9844 -0.000758692 0.0123896 10.9006 0.0169355 0.336402 0.0041049 3.48306 -27.4935 -45.8767 -32.8448 1.42722 51.9784 0.00140978 3.79706 -2.25981 -3.26405 0 0 -1.27222e-014 -1.98785e-016 0 -1.27222e-014 3.97569e-016 0 -6.36111e-015 -0.31982 0.0478684 -2.7942 37.403 -36.8833 48.1872 11.5737 -0.529136 0.000285694 -5.38955 -0.525049 -0.0507133 -1.46289e-006 4.65295e-007 6.72178e-007 -3.18055e-015 0 -3.18055e-015 -3.18055e-015 0 -3.18055e-015 
-0.498173 18.285 -3.45611 -0.00750335 -0.000436216 -0.057281 -6.51856e-019 -9.70628e-020 2.48481e-017 -18.508 -4.75289 1.30651 0.495867 8.01135 3.44657 -1.00331 -3.20216 -4.82366 1.11411e-006 -5.98761e-014 -2.6867e-014 -6.51856e-019 -9.70628e-020 2.48481e-017 21.8639 -7.04232 0.860139 -1.34184 9.434 -15.2559 2.36824 -1.71071 14.6893 -1.2283e-015 -3.94463e-014 -1.99677e-013 -6.51856e-019 -9.70628e-020 2.48481e-017 -0.0454491 -0.0290088 0.000608912 0.0123052 0.0865135 -6.69564e-005 0.00658721 -16.0155 -0.0135521 0.0112227 20.9844 -0.00531463 0.0198149 10.8872 0.0148755 0.336402 0.0041049 3.48306 -27.4933 -45.8847 -32.8659 1.44332 52.0314 0.00141145 3.82349 -2.26265 -3.27388 -7.95139e-016 3.97569e-016 -6.36111e-015 -2.20695e-032 -3.97569e-016 -3.18055e-015 -5.96354e-016 7.95139e-016 -3.18055e-015 -0.319817 0.0478682 -2.79715 37.4404 -36.8634 48.2023 11.567 -0.529136 0.000285694 -5.38955 -0.525049 -0.0507133 -1.46289e-006 4.65295e-007 6.72178e-007 1.76556e-031 -3.18055e-015 3.18055e-015 -6.36111e-015 0 -3.18055e-015 
-0.498912 18.285 -3.45604 -0.00935275 0.00524168 -0.0697398 -6.67307e-019 0 -0 -18.5074 -4.75724 1.2969 0.506432 8.01127 3.45611 -1.01322 -3.20508 -4.82478 1.11411e-006 -5.98715e-014 -2.68608e-014 -6.67307e-019 0 -0 21.858 -7.0308 0.853822 -1.33595 9.40805 -15.2483 2.42544 -1.71862 14.6931 6.58354e-015 -3.94588e-014 -1.99692e-013 -6.67307e-019 0 -0 -0.046506 -0.0419353 0.00464082 0.00133915 0.0957336 0.00618473 0.0182505 -16.0155 -0.0135521 0.023898 20.9844 -0.0113117 0.0287813 10.8773 0.0109323 0.336402 0.0041049 3.48306 -27.5012 -45.8953 -32.8994 1.46381 52.086 0.00141318 3.86358 -2.26605 -3.28992 -1.98785e-016 -7.95139e-016 -9.54166e-015 -1.98785e-016 -3.97569e-016 -9.54166e-015 1.98785e-016 -3.97569e-016 -3.18055e-015 -0.319815 0.0478681 -2.80048 37.4785 -36.8437 48.2146 11.5593 -0.529136 0.000285694 -5.38955 -0.525049 -0.0507133 -1.46289e-006 4.65295e-007 6.72178e-007 6.36111e-015 -6.36111e-015 3.18055e-015 -3.18055e-015 3.18055e-015 3.18055e-015 
